<svg xmlns="http://www.w3.org/2000/svg" viewBox="0 0 100 100" fill="none">
  <path
    d="m 70.37,61.111 c -1.514901,-0.281722 -2.624393,1.791971 -3.97664,2.455262 -6.564177,5.274571 -14.223501,8.920474 -21.66784,12.757493 -5.594808,2.220598 -11.059034,4.82498 -16.967535,6.123626 -2.949995,0.815207 -5.89999,1.630413 -8.849985,2.445619 -0.719591,1.348899 2.334921,1.94061 3.193113,2.972962 3.414506,2.13305 6.50904,4.884347 10.459742,5.981361 3.53429,1.540372 7.320498,2.49356 11.131259,2.948911 4.365188,-0.07396 8.782337,0.420599 13.11325,-0.02836 3.939116,-0.711832 7.860734,-1.484958 11.529502,-3.143756 2.175648,-0.119672 1.474645,-2.497066 1.86571,-4.017357 C 70.847386,84.363758 71.621475,79.128326 71.345,73.830417 71.250957,69.582712 70.663287,65.350578 70.37,61.111 Z
       M 68.031,38.109 c 1.719302,6.107638 3.825743,12.12501 4.636947,18.444381 1.370276,6.350963 1.520215,12.868621 1.980289,19.325649 -0.101379,4.906846 0.0041,9.830482 -0.964236,14.66697 1.180272,0.708722 2.61003,-1.642342 3.887103,-2.120811 3.507614,-2.254422 6.564466,-5.117488 9.261211,-8.277153 2.291222,-2.993748 4.512983,-6.029912 5.97686,-9.528855 2.41158,-4.311803 3.856902,-9.124336 4.286569,-14.042199 0.758413,-1.88749 -1.70408,-2.539281 -2.692398,-3.756638 C 91.001162,49.777195 86.952277,47.56299 83.101469,45.151135 78.10288,42.746174 73.348152,39.774795 68.031,38.109 Z
       M 3.704,37.719 c -0.6600749,4.650719 -2.1494161,9.239511 -1.6515052,13.976706 -0.029006,3.989453 0.6918681,7.984366 1.8570228,11.787152 1.5017785,5.097608 3.9954161,9.870933 7.2093904,14.097173 1.099288,1.806312 2.676358,3.22471 4.086092,4.778969 4.844591,-0.773636 9.571391,-2.015339 14.212341,-3.59819 C 35.570469,77.023049 41.254457,74.01163 47.173,71.637 46.915107,70.158454 44.51887,69.933215 43.416812,68.949442 36.556158,65.471014 30.540398,60.64546 24.192917,56.348812 19.917734,52.967299 15.75665,49.399154 11.719698,45.734698 9.0477987,43.062799 6.3758993,40.390899 3.704,37.719 Z
       m 47.758,-9.551 c 0.708669,1.141259 3.020182,1.121179 4.346586,1.814859 5.388016,1.585907 10.590171,3.662962 15.699213,5.986077 5.96515,2.431939 11.565756,5.66291 17.242552,8.678669 C 91.785567,46.691736 94.820784,48.735868 97.856,50.78 97.286955,46.750192 97.290527,42.59635 96.345689,38.647943 95.066828,34.81269 93.994808,30.888748 91.810704,27.441638 89.622122,23.036639 86.342429,19.329369 82.838236,15.924492 81.712941,14.779384 80.335842,13.266603 78.898741,12.882993 73.472633,15.477201 67.90422,17.80741 62.906202,21.195803 59.091468,23.519868 55.276734,25.843934 51.462,28.168 Z
       M 32.554,5.945 c -3.664184,1.8857489 -7.716529,3.1427719 -10.767495,6.021782 -2.836298,2.157492 -5.724487,4.260879 -7.810832,7.20033 -2.107074,2.452872 -4.3576697,4.808255 -5.6085737,7.842697 -0.9593575,2.04376 -2.3862744,4.011184 -3.0598647,6.101599 0.3033813,1.90009 2.4068505,2.904383 3.4816421,4.420588 3.8210383,4.024998 7.4824603,8.220369 11.9554473,11.54948 2.636892,2.190508 5.273784,4.381016 7.910676,6.571524 0.908949,-0.745774 0.13113,-3.178316 0.39,-4.57417 -0.09266,-10.927893 -0.0046,-21.88627 1.401647,-32.740366 C 30.781962,14.151409 31.834222,10.074877 32.554,5.945 Z
       m 42.69,4.094 C 70.993974,8.0150167 67.016617,5.2928962 62.325449,4.3984089 57.537106,2.7066315 52.448121,2.4675546 47.417417,2.632 43.789455,2.8012744 40.242173,3.8566207 36.647,4.386 35.681414,9.8530702 34.078818,15.23339 33.576649,20.76357 33.235766,25.765713 32.894883,30.767857 32.554,35.77 42.24964,29.895655 51.777021,23.730704 61.58195,18.045115 66.135967,15.57141 70.689983,13.097705 75.244,10.624 c 0,-0.195 0,-0.39 0,-0.585 z"
    fill="#FFFFFF"
    fill-rule="evenodd"
    clip-rule="evenodd"
  />
</svg>
